<?xml version="1.0" encoding="utf-8"?>
<!-- Generator: Adobe Illustrator 24.2.0, SVG Export Plug-In . SVG Version: 6.00 Build 0)  -->
<svg version="1.1" id="Layer_1" xmlns="http://www.w3.org/2000/svg" xmlns:xlink="http://www.w3.org/1999/xlink" x="0px" y="0px"
	 viewBox="0 0 612 184.2" style="enable-background:new 0 0 612 184.2;" xml:space="preserve">
<style type="text/css">
	.st0{fill-rule:evenodd;clip-rule:evenodd;fill:#FF9900;}
	.st1{fill-rule:evenodd;clip-rule:evenodd;fill:#FFFFFF;}
</style>
<g>
	<path class="st0" d="M379.7,144.1c-35.4,26.2-87,40.2-131.4,40.2c-62.3,0-118.1-23-160.6-61.2c-3.2-3-0.4-7.1,3.7-4.7
		c45.7,26.6,102.2,42.5,160.6,42.5c39.3,0,82.7-8.2,122.6-25.1C380.5,133.4,385.5,139.8,379.7,144.1L379.7,144.1z"/>
	<path class="st0" d="M394.5,127.1c-4.5-5.8-30.1-2.8-41.4-1.3c-3.4,0.4-4.1-2.6-0.9-4.7c20.4-14.4,53.7-10.1,57.5-5.4
		s-1.1,38.2-20.2,54.1c-3,2.4-5.8,1.1-4.5-2.1C389.3,157,399,133.1,394.5,127.1z"/>
	<path class="st1" d="M353.7,20.2v-14c0-2.1,1.5-3.4,3.4-3.4h62.3c1.9,0,3.7,1.5,3.7,3.4V18c0,1.9-1.7,4.5-4.7,8.8l-32.2,46
		c12-0.2,24.7,1.5,35.4,7.5c2.4,1.3,3,3.4,3.2,5.4v14.8c0,2.1-2.1,4.5-4.5,3.2c-19.1-10.1-44.7-11.2-65.7,0.2
		c-2.1,1.1-4.5-1.1-4.5-3.2V86.5c0-2.1,0-6,2.4-9.4l37.4-53.5h-32.4C355.4,23.6,353.7,22.1,353.7,20.2L353.7,20.2z M126.7,106.7
		h-18.9c-1.7-0.2-3.2-1.5-3.4-3.2V6.4c0-1.9,1.7-3.4,3.7-3.4h17.6c1.9,0,3.2,1.5,3.4,3.2v12.7h0.4c4.5-12.2,13.3-18,24.9-18
		c11.8,0,19.3,5.8,24.5,18c4.5-12.2,15-18,26.2-18c7.9,0,16.5,3.2,21.9,10.7c6,8.2,4.7,20,4.7,30.5v61.4c0,1.9-1.7,3.4-3.7,3.4
		h-18.7c-1.9-0.2-3.4-1.7-3.4-3.4V52c0-4.1,0.4-14.4-0.4-18.3c-1.5-6.4-5.6-8.4-11.2-8.4c-4.5,0-9.4,3-11.4,7.9s-1.7,13.1-1.7,18.7
		v51.5c0,1.9-1.7,3.4-3.7,3.4h-18.9c-1.9-0.2-3.4-1.7-3.4-3.4V52c0-10.7,1.7-26.8-11.6-26.8c-13.5,0-13.1,15.5-13.1,26.8v51.5
		C130.3,105.2,128.8,106.7,126.7,106.7L126.7,106.7z M476.7,0.9c28.1,0,43.4,24.1,43.4,54.8c0,29.6-16.7,53.3-43.4,53.3
		c-27.5,0-42.5-24.1-42.5-54.1C434,24.5,449.2,0.9,476.7,0.9L476.7,0.9z M476.7,20.8c-14,0-14.8,19.1-14.8,30.9s-0.2,37.1,14.6,37.1
		c14.6,0,15.5-20.4,15.5-32.9c0-8.2-0.4-18-2.8-25.8C487,23.4,482.7,20.8,476.7,20.8L476.7,20.8z M556.4,106.7h-18.9
		c-1.9-0.2-3.4-1.7-3.4-3.4V6c0.2-1.7,1.7-3.2,3.7-3.2h17.6c1.7,0,3,1.3,3.4,2.8v14.8h0.4C564.6,7.1,571.9,0.9,585,0.9
		c8.4,0,16.7,3,22.1,11.4C612,20,612,33.1,612,42.5v61.2c-0.2,1.7-1.7,3-3.7,3h-18.9c-1.7-0.2-3.2-1.5-3.4-3V50.9
		c0-10.7,1.3-26.2-11.8-26.2c-4.5,0-8.8,3-11,7.7c-2.6,6-3,11.8-3,18.5v52.4C560,105.2,558.3,106.7,556.4,106.7L556.4,106.7z
		 M304.1,60.3c0,7.3,0.2,13.5-3.4,20.2c-3,5.4-7.7,8.6-13.1,8.6c-7.3,0-11.6-5.6-11.6-13.7c0-16.1,14.4-19.1,28.1-19.1V60.3z
		 M323.2,106.5c-1.3,1.1-3,1.3-4.5,0.4c-6.2-5.2-7.5-7.7-11-12.7c-10.3,10.5-17.8,13.7-31.1,13.7c-15.9,0-28.3-9.9-28.3-29.4
		c0-15.5,8.4-25.8,20.2-30.9c10.3-4.5,24.7-5.4,35.6-6.7v-2.4c0-4.5,0.4-9.9-2.4-13.7c-2.4-3.4-6.7-4.9-10.5-4.9
		c-7.3,0-13.7,3.7-15.2,11.4c-0.4,1.7-1.5,3.4-3.2,3.4l-18.3-1.9c-1.5-0.4-3.2-1.5-2.8-3.9C256,6.7,275.9,0,294,0
		c9.2,0,21.3,2.4,28.6,9.4C331.8,18,331,29.6,331,42v29.4c0,8.8,3.7,12.7,7.1,17.6c1.3,1.7,1.5,3.9,0,4.9
		C333.9,97.3,327,103.3,323.2,106.5L323.2,106.5z M56,60.3c0,7.3,0.2,13.5-3.4,20.2c-3,5.4-7.7,8.6-13.1,8.6
		c-7.3,0-11.6-5.6-11.6-13.7c0-16.1,14.4-19.1,28.1-19.1V60.3z M74.9,106.5c-1.3,1.1-3,1.3-4.5,0.4c-6.2-5.2-7.5-7.7-11-12.7
		C49.2,104.8,41.7,108,28.3,108C12.5,108,0,98.1,0,78.6c0-15.5,8.4-25.8,20.2-30.9c10.3-4.5,24.7-5.4,35.6-6.7v-2.4
		c0-4.5,0.4-9.9-2.4-13.7C51,21.5,46.7,20,42.9,20c-7.3,0-13.7,3.7-15.2,11.4c-0.4,1.7-1.5,3.4-3.2,3.4L6.2,32.9
		C4.7,32.4,3,31.4,3.4,29C7.7,6.7,27.7,0,45.7,0C55,0,67,2.4,74.3,9.4c9.2,8.6,8.4,20.2,8.4,32.6v29.4c0,8.8,3.7,12.7,7.1,17.6
		c1.3,1.7,1.5,3.9,0,4.9C85.7,97.3,78.8,103.3,74.9,106.5L74.9,106.5z"/>
</g>
</svg>
