<?xml version="1.0" encoding="utf-8"?>
<!-- Generator: Adobe Illustrator 24.2.0, SVG Export Plug-In . SVG Version: 6.00 Build 0)  -->
<svg version="1.1" id="Layer_1" xmlns="http://www.w3.org/2000/svg" xmlns:xlink="http://www.w3.org/1999/xlink" x="0px" y="0px"
	 viewBox="0 0 2435.7 2500" style="enable-background:new 0 0 2435.7 2500;" xml:space="preserve">
<style type="text/css">
	.st0{fill:#FF9900;}
	.st1{fill-rule:evenodd;clip-rule:evenodd;}
</style>
<g>
	<path class="st0" d="M2137.7,2058c-1031.9,491.1-1672.2,80.2-2082.2-169.3c-25.4-15.7-68.5,3.7-31.1,46.6
		C161,2100.9,608.5,2500,1192.7,2500c584.6,0,932.4-319,975.9-374.6C2211.8,2070.2,2181.3,2039.8,2137.7,2058L2137.7,2058z
		 M2427.5,1897.9c-27.7-36.1-168.5-42.8-257.1-31.9c-88.7,10.6-221.9,64.8-210.4,97.4c5.9,12.2,18.1,6.7,79,1.2
		c61.1-6.1,232.4-27.7,268,18.9c35.8,47-54.6,270.7-71.1,306.8c-16,36.1,6.1,45.4,36.1,21.4c29.6-24,83.1-86.2,119-174.3
		C2426.7,2048.9,2448.5,1925.4,2427.5,1897.9L2427.5,1897.9z"/>
	<path class="st1" d="M1443.8,1055.9c0,128.9,3.3,236.3-61.9,350.7c-52.6,93-135.8,150.3-228.9,150.3c-127,0-201-96.8-201-239.6
		c0-281.9,252.6-333.1,491.7-333.1V1055.9z M1777.4,1862.1c-21.9,19.5-53.5,20.9-78.1,7.9c-109.8-91.2-129.3-133.5-189.8-220.5
		C1328,1834.7,1199.6,1890,964.3,1890c-278.2,0-495-171.7-495-515.4c0-268.4,145.6-451.2,352.6-540.5
		c179.6-79.1,430.3-93,621.9-114.9v-42.8c0-78.6,6-171.7-40-239.6c-40.5-60.9-117.7-86.1-185.6-86.1
		c-126.1,0-238.6,64.7-266.1,198.6c-5.6,29.8-27.4,59.1-57.2,60.5l-321-34.4c-27-6.1-56.7-27.9-49.3-69.3
		C598.6,117.2,949.8,0,1264.3,0c161,0,371.2,42.8,498.2,164.7c161,150.2,145.6,350.7,145.6,568.9V1249
		c0,154.9,64.2,222.8,124.7,306.6c21.4,29.8,26.1,65.6-0.9,87.9c-67.5,56.3-187.5,161-253.5,219.6L1777.4,1862.1"/>
	<path class="st0" d="M2137.7,2058c-1031.9,491.1-1672.2,80.2-2082.2-169.3c-25.4-15.7-68.5,3.7-31.1,46.6
		C161,2100.9,608.5,2500,1192.7,2500c584.6,0,932.4-319,975.9-374.6C2211.8,2070.2,2181.3,2039.8,2137.7,2058L2137.7,2058z
		 M2427.5,1897.9c-27.7-36.1-168.5-42.8-257.1-31.9c-88.7,10.6-221.9,64.8-210.4,97.4c5.9,12.2,18.1,6.7,79,1.2
		c61.1-6.1,232.4-27.7,268,18.9c35.8,47-54.6,270.7-71.1,306.8c-16,36.1,6.1,45.4,36.1,21.4c29.6-24,83.1-86.2,119-174.3
		C2426.7,2048.9,2448.5,1925.4,2427.5,1897.9L2427.5,1897.9z"/>
	<path class="st1" d="M1443.8,1055.9c0,128.9,3.3,236.3-61.9,350.7c-52.6,93-135.8,150.3-228.9,150.3c-127,0-201-96.8-201-239.6
		c0-281.9,252.6-333.1,491.7-333.1V1055.9z M1777.4,1862.1c-21.9,19.5-53.5,20.9-78.1,7.9c-109.8-91.2-129.3-133.5-189.8-220.5
		C1328,1834.7,1199.6,1890,964.3,1890c-278.2,0-495-171.7-495-515.4c0-268.4,145.6-451.2,352.6-540.5
		c179.6-79.1,430.3-93,621.9-114.9v-42.8c0-78.6,6-171.7-40-239.6c-40.5-60.9-117.7-86.1-185.6-86.1
		c-126.1,0-238.6,64.7-266.1,198.6c-5.6,29.8-27.4,59.1-57.2,60.5l-321-34.4c-27-6.1-56.7-27.9-49.3-69.3
		C598.6,117.2,949.8,0,1264.3,0c161,0,371.2,42.8,498.2,164.7c161,150.2,145.6,350.7,145.6,568.9V1249
		c0,154.9,64.2,222.8,124.7,306.6c21.4,29.8,26.1,65.6-0.9,87.9c-67.5,56.3-187.5,161-253.5,219.6L1777.4,1862.1"/>
</g>
</svg>
