<?xml version="1.0" encoding="utf-8"?>
<!-- Generator: Adobe Illustrator 24.2.0, SVG Export Plug-In . SVG Version: 6.00 Build 0)  -->
<svg version="1.1" id="Layer_1" xmlns="http://www.w3.org/2000/svg" xmlns:xlink="http://www.w3.org/1999/xlink" x="0px" y="0px"
	 viewBox="0 0 122.9 85.5" style="enable-background:new 0 0 122.9 85.5;" xml:space="preserve">
<style type="text/css">
	.st0{fill:#FF9933;}
	.st1{fill:#FFFFFF;}
	.st2{fill:#128807;}
	.st3{fill:#000088;}
</style>
<g>
	<path class="st0" d="M6.7,0h109.5c3.7,0,6.7,3,6.7,6.8v72c0,3.7-3,6.8-6.8,6.8H6.7C3,85.5,0,82.4,0,78.7v-72C0,3,3,0,6.7,0L6.7,0z"
		/>
	<polygon class="st1" points="0,28.5 122.9,28.5 122.9,57 0,57 	"/>
	<path class="st2" d="M0,57h122.9v21.7c0,3.7-3,6.8-6.8,6.8H6.7C3,85.5,0,82.4,0,78.7V57L0,57z"/>
	<path class="st3" d="M72.8,42.7c0-6.3-5.1-11.4-11.4-11.4S50,36.4,50,42.7c0,6.3,5.1,11.4,11.4,11.4S72.8,49,72.8,42.7L72.8,42.7z"
		/>
	<path class="st1" d="M71.4,42.7c0-5.5-4.5-10-10-10s-10,4.5-10,10s4.5,10,10,10S71.4,48.3,71.4,42.7L71.4,42.7z"/>
	<path class="st3" d="M63.4,42.7c0-1.1-0.9-2-2-2s-2,0.9-2,2c0,1.1,0.9,2,2,2S63.4,43.8,63.4,42.7L63.4,42.7z"/>
	<path class="st3" d="M71.8,44.1c0-0.3-0.2-0.5-0.4-0.6s-0.5,0.2-0.6,0.4s0.2,0.5,0.4,0.6C71.5,44.6,71.8,44.4,71.8,44.1L71.8,44.1z
		"/>
	<polygon class="st3" points="61.4,52.7 61.8,46.7 61.4,43.9 61.1,46.7 	"/>
	<path class="st3" d="M71.1,46.8c0.1-0.3,0-0.5-0.3-0.7c-0.3-0.1-0.6,0-0.7,0.3c-0.1,0.3,0,0.5,0.3,0.7C70.7,47.1,71,47,71.1,46.8
		L71.1,46.8z"/>
	<polygon class="st3" points="58.9,52.4 60.7,46.7 61.2,43.8 60.1,46.5 	"/>
	<path class="st3" d="M69.8,49.1c0.2-0.2,0.1-0.5-0.1-0.7c-0.2-0.2-0.5-0.1-0.7,0.1s-0.1,0.5,0.1,0.7S69.6,49.3,69.8,49.1L69.8,49.1
		z"/>
	<polygon class="st3" points="56.5,51.4 59.7,46.4 60.9,43.7 59.2,46 	"/>
	<path class="st3" d="M67.8,51c0.2-0.2,0.3-0.5,0.1-0.7c-0.2-0.2-0.5-0.3-0.7-0.1c-0.2,0.2-0.3,0.5-0.1,0.7
		C67.3,51.2,67.6,51.2,67.8,51L67.8,51z"/>
	<polygon class="st3" points="54.4,49.8 58.9,45.8 60.6,43.5 58.4,45.3 	"/>
	<path class="st3" d="M65.4,52.4c0.3-0.1,0.4-0.4,0.3-0.7s-0.4-0.4-0.7-0.3c-0.3,0.1-0.4,0.4-0.3,0.7C64.9,52.4,65.2,52.5,65.4,52.4
		L65.4,52.4z"/>
	<polygon class="st3" points="52.8,47.7 58.2,45 60.5,43.3 57.8,44.4 	"/>
	<path class="st3" d="M62.8,53.1c0.3,0,0.5-0.3,0.4-0.6c0-0.3-0.3-0.5-0.6-0.4c-0.3,0-0.5,0.3-0.4,0.6C62.3,53,62.5,53.2,62.8,53.1
		L62.8,53.1z"/>
	<polygon class="st3" points="51.8,45.3 57.7,44.1 60.3,43 57.5,43.4 	"/>
	<path class="st3" d="M60.1,53.1c0.3,0,0.5-0.2,0.6-0.4s-0.2-0.5-0.4-0.6s-0.5,0.2-0.6,0.4C59.6,52.8,59.8,53.1,60.1,53.1L60.1,53.1
		z"/>
	<polygon class="st3" points="51.5,42.7 57.5,43.1 60.3,42.7 57.5,42.4 	"/>
	<path class="st3" d="M57.4,52.4c0.3,0.1,0.5,0,0.7-0.3s0-0.5-0.3-0.7c-0.3-0.1-0.5,0-0.7,0.3C57.1,52,57.2,52.3,57.4,52.4
		L57.4,52.4z"/>
	<polygon class="st3" points="51.8,40.2 57.5,42 60.3,42.5 57.7,41.4 	"/>
	<path class="st3" d="M55.1,51c0.2,0.2,0.5,0.1,0.7-0.1c0.2-0.2,0.1-0.5-0.1-0.7c-0.2-0.2-0.5-0.1-0.7,0.1
		C54.8,50.6,54.8,50.9,55.1,51L55.1,51z"/>
	<polygon class="st3" points="52.8,37.8 57.8,41 60.5,42.2 58.2,40.5 	"/>
	<path class="st3" d="M53.1,49.1c0.2,0.2,0.5,0.3,0.7,0.1s0.3-0.5,0.1-0.7s-0.5-0.3-0.7-0.1C53,48.6,53,48.9,53.1,49.1L53.1,49.1z"
		/>
	<polygon class="st3" points="54.4,35.7 58.4,40.2 60.6,41.9 58.9,39.7 	"/>
	<path class="st3" d="M51.8,46.8c0.1,0.3,0.4,0.4,0.7,0.3s0.4-0.4,0.3-0.7S52.3,46,52,46.1C51.8,46.2,51.7,46.5,51.8,46.8L51.8,46.8
		z"/>
	<polygon class="st3" points="56.5,34.1 59.2,39.5 60.9,41.8 59.7,39.1 	"/>
	<path class="st3" d="M51.1,44.1c0,0.3,0.3,0.5,0.6,0.4c0.3,0,0.5-0.3,0.4-0.6c0-0.3-0.3-0.5-0.6-0.4C51.2,43.6,51,43.8,51.1,44.1
		L51.1,44.1z"/>
	<polygon class="st3" points="58.9,33.1 60.1,39 61.2,41.6 60.7,38.8 	"/>
	<path class="st3" d="M51.1,41.4c0,0.3,0.2,0.5,0.4,0.6s0.5-0.2,0.6-0.4s-0.2-0.5-0.4-0.6C51.3,40.9,51.1,41.1,51.1,41.4L51.1,41.4z
		"/>
	<polygon class="st3" points="61.4,32.8 61.1,38.8 61.4,41.6 61.8,38.8 	"/>
	<path class="st3" d="M51.8,38.7c-0.1,0.3,0,0.5,0.3,0.7c0.3,0.1,0.5,0,0.7-0.3c0.1-0.3,0-0.5-0.3-0.7
		C52.2,38.4,51.9,38.5,51.8,38.7L51.8,38.7z"/>
	<polygon class="st3" points="64,33.1 62.1,38.8 61.7,41.6 62.8,39 	"/>
	<path class="st3" d="M53.1,36.4c-0.2,0.2-0.1,0.5,0.1,0.7c0.2,0.2,0.5,0.1,0.7-0.1c0.2-0.2,0.1-0.5-0.1-0.7
		C53.6,36.1,53.3,36.2,53.1,36.4L53.1,36.4z"/>
	<polygon class="st3" points="66.4,34.1 63.1,39.1 62,41.8 63.7,39.5 	"/>
	<path class="st3" d="M55.1,34.4c-0.2,0.2-0.3,0.5-0.1,0.7s0.5,0.3,0.7,0.1s0.3-0.5,0.1-0.7S55.3,34.3,55.1,34.4L55.1,34.4z"/>
	<polygon class="st3" points="68.5,35.7 64,39.7 62.3,41.9 64.5,40.2 	"/>
	<path class="st3" d="M57.4,33.1c-0.3,0.1-0.4,0.4-0.3,0.7c0.1,0.3,0.4,0.4,0.7,0.3s0.4-0.4,0.3-0.7C58,33.1,57.7,33,57.4,33.1
		L57.4,33.1z"/>
	<polygon class="st3" points="70.1,37.8 64.7,40.5 62.4,42.2 65.1,41 	"/>
	<path class="st3" d="M60.1,32.4c-0.3,0-0.5,0.3-0.4,0.6c0,0.3,0.3,0.5,0.6,0.4c0.3,0,0.5-0.3,0.4-0.6
		C60.6,32.5,60.3,32.3,60.1,32.4L60.1,32.4z"/>
	<polygon class="st3" points="71.1,40.2 65.2,41.4 62.5,42.5 65.4,42 	"/>
	<path class="st3" d="M62.8,32.4c-0.3,0-0.5,0.2-0.6,0.4s0.2,0.5,0.4,0.6s0.5-0.2,0.6-0.4C63.3,32.7,63.1,32.4,62.8,32.4L62.8,32.4z
		"/>
	<polygon class="st3" points="71.4,42.7 65.4,42.4 62.6,42.7 65.4,43.1 	"/>
	<path class="st3" d="M65.4,33.1c-0.3-0.1-0.6,0-0.7,0.3c-0.1,0.3,0,0.5,0.3,0.7c0.3,0.1,0.6,0,0.7-0.3
		C65.8,33.5,65.7,33.2,65.4,33.1L65.4,33.1z"/>
	<polygon class="st3" points="71.1,45.3 65.4,43.4 62.5,43 65.2,44.1 	"/>
	<path class="st3" d="M67.8,34.4c-0.2-0.2-0.5-0.1-0.7,0.1S67,35,67.2,35.2c0.2,0.2,0.5,0.1,0.7-0.1C68.1,34.9,68,34.6,67.8,34.4
		L67.8,34.4z"/>
	<polygon class="st3" points="70.1,47.7 65.1,44.4 62.4,43.3 64.7,45 	"/>
	<path class="st3" d="M69.8,36.4c-0.2-0.2-0.5-0.3-0.7-0.1S68.8,36.8,69,37c0.2,0.2,0.5,0.3,0.7,0.1C69.9,36.9,69.9,36.6,69.8,36.4
		L69.8,36.4z"/>
	<polygon class="st3" points="68.5,49.8 64.5,45.3 62.3,43.5 64,45.8 	"/>
	<path class="st3" d="M71.1,38.7c-0.1-0.3-0.4-0.4-0.7-0.3s-0.4,0.4-0.3,0.7s0.4,0.4,0.7,0.3C71.1,39.3,71.2,39,71.1,38.7L71.1,38.7
		z"/>
	<polygon class="st3" points="66.4,51.4 63.7,46 62,43.7 63.1,46.4 	"/>
	<path class="st3" d="M71.8,41.4c0-0.3-0.3-0.5-0.6-0.4c-0.3,0-0.5,0.3-0.4,0.6c0,0.3,0.3,0.5,0.6,0.4
		C71.7,41.9,71.9,41.7,71.8,41.4L71.8,41.4z"/>
	<polygon class="st3" points="64,52.4 62.8,46.5 61.7,43.8 62.1,46.7 	"/>
</g>
</svg>
